  <svg
    xmlns="http://www.w3.org/2000/svg"
    viewBox="0 0 256 256"
    width="256"
    height="256"
  >
    <g transform="translate(1.4066 1.4066) scale(2.81 2.81)" fill="white">
      <path d="M45 70.968c-16.013 0-29.042-13.028-29.042-29.042 0-1.712 1.388-3.099 3.099-3.099 1.712 0 3.099 1.388 3.099 3.099C22.157 54.522 32.404 64.77 45 64.77c12.595 0 22.843-10.248 22.843-22.843 0-1.712 1.387-3.099 3.099-3.099s3.099 1.388 3.099 3.099C74.042 57.94 61.013 70.968 45 70.968z"/>
      <path d="M45 60.738c-10.285 0-18.7-8.415-18.7-18.7V18.7C26.3 8.415 34.715 0 45 0c10.285 0 18.7 8.415 18.7 18.7v23.337c0 10.285-8.415 18.701-18.7 18.701z"/>
      <path d="M45 89.213c-1.712 0-3.099-1.387-3.099-3.099V68.655c0-1.712 1.388-3.099 3.099-3.099 1.712 0 3.099 1.387 3.099 3.099v17.459c0 1.712-1.387 3.099-3.099 3.099z"/>
      <path d="M55.451 90H34.549c-1.712 0-3.099-1.387-3.099-3.099s1.388-3.099 3.099-3.099h20.901c1.712 0 3.099 1.387 3.099 3.099S57.163 90 55.451 90z"/>
    </g>
  </svg>

